<?xml version="1.0" standalone="no"?>
<svg viewBox="0 0 200 200" xmlns="http://www.w3.org/2000/svg">
  <path fill="#008ED6" d="M37.7,-47.1C52.1,-41.4,69.4,-34.8,75.7,-22.8C82,-10.9,77.3,6.3,67,16.7C56.6,27.1,40.7,30.5,28.6,42.1C16.5,53.7,8.2,73.5,-4.2,79.2C-16.5,84.9,-33.1,76.6,-44.9,64.9C-56.6,53.2,-63.7,38.1,-71.1,21.6C-78.6,5.1,-86.6,-12.8,-80.4,-24.3C-74.2,-35.8,-53.8,-40.9,-38,-46.2C-22.3,-51.5,-11.1,-57.1,0.2,-57.4C11.6,-57.7,23.2,-52.8,37.7,-47.1Z" transform="translate(100 100)" />
</svg>
